PathFileType	4	(X/Y/Z)	pose_F01_0-96.trc
DataRate	CameraRate	NumFrames	NumMarkers	Units	OrigDataRate	OrigDataStartFrame	OrigNumFrames
30	30	8	21	m	30	72	96
Frame#	Time	CHip			RHip			RKnee			RAnkle			RBigToe			RSmallToe			RHeel			LHip			LKnee			LAnkle			LBigToe			LSmallToe			LHeel			Neck			Nose			RShoulder			RElbow			RWrist			LShoulder			LElbow			LWrist			
		X1	Y1	Z1	X2	Y2	Z2	X3	Y3	Z3	X4	Y4	Z4	X5	Y5	Z5	X6	Y6	Z6	X7	Y7	Z7	X8	Y8	Z8	X9	Y9	Z9	X10	Y10	Z10	X11	Y11	Z11	X12	Y12	Z12	X13	Y13	Z13	X14	Y14	Z14	X15	Y15	Z15	X16	Y16	Z16	X17	Y17	Z17	X18	Y18	Z18	X19	Y19	Z19	X20	Y20	Z20	X21	Y21	Z21	
72	2.4	-0.08663975164549804	1.9067088405378305	-0.81103274456333	-0.10977032856143043	1.9060119072822808	-0.7514344669282246	-0.12171901194420624	1.7581908944122806	-0.7226782450789708	-0.14275345989508867	1.622277693666952	-0.6383059857446722	-0.1480599423871596	1.5791945549104855	-0.6692010584681298	-0.15641347921832524	1.5818118301011124	-0.6315840434609177	-0.14214484352547657	1.6154106949664397	-0.625493544279479	-0.06240487061731216	1.9073562320621904	-0.8705924915132636	-0.0712045000842262	1.7566657257520768	-0.8347514931898726	-0.07920672854737089	1.6240905740059244	-0.7742143283015221	-0.1270350911652105	1.590431016680005	-0.7624048324736105	-0.11795038972080783	1.5938058453068171	-0.767637063643224	-0.08838433196265769	1.613723480011575	-0.7473363428613958	-0.07605382049490844	2.0607834779422776	-0.838572306382844	-0.08316753192459483	2.1104289505315137	-0.877049587618598	-0.11071204528242008	2.062034557417368	-0.7570000364906034	-0.12181078849300243	1.9864728496997324	-0.7390504528517271	-0.1014492808254576	2.0362106478608877	-0.8068338011629274	-0.037738008639490915	2.061444291796331	-0.9277689349874758	-0.0324314252995826	1.9825516961419345	-0.9428792405228456	-0.056648882501332834	2.0258659133942625	-0.914154260698242
73	2.433333333333333	-0.08596612524699361	1.9092098787688125	-0.8082599256579878	-0.11116108314308594	1.9084497319609863	-0.7463430766383505	-0.12372335974669017	1.7559671558169552	-0.7164259892256843	-0.14164754762281617	1.6235793044927143	-0.6355795707568742	-0.14942350239060703	1.5796187410658906	-0.6635299033876997	-0.1578906645716775	1.5835154053072504	-0.6258070899442671	-0.1397528291645945	1.6167543800425093	-0.6282413804919986	-0.06463125922279779	1.9085474848116033	-0.868203314200545	-0.07106437579933274	1.7582665424853374	-0.835005090768309	-0.07935285879965757	1.6252981767910104	-0.774003044909155	-0.1270350911652105	1.590431016680005	-0.7624048324736105	-0.11795038972080783	1.5938058453068171	-0.767637063643224	-0.08985607782488306	1.613814677320816	-0.7418381666290779	-0.07609024922360083	2.059517248153345	-0.8380236377598794	-0.08433523955899822	2.112534886739071	-0.857276189307867	-0.1092121026166166	2.0605631860725557	-0.7511093400939389	-0.11937926984003226	1.982332996529711	-0.7289815642162449	-0.10122346112581013	2.0360122085892653	-0.7942819091554336	-0.04081987971315281	2.0600307032812015	-0.9278078483286649	-0.03974330971879664	1.9823498971984193	-0.935552191532894	-0.07226475100056672	2.032979376401571	-0.8935672718461042
74	2.466666666666667	-0.08596945892775402	1.9092215845765896	-0.8081548078015682	-0.11042019252396895	1.908414413274299	-0.7431926480845868	-0.12576612841454815	1.7573074173435388	-0.7143508149356491	-0.14107091183785572	1.622428075111294	-0.6317646565291543	-0.14947876238348204	1.5796690175499681	-0.6635317819265423	-0.15770741035188696	1.5820465352550808	-0.6259157425898663	-0.13885561728151777	1.6167342254230774	-0.6249247299666433	-0.06468766613767628	1.9085445002030257	-0.8681958308941166	-0.07081218606827669	1.7595475983598758	-0.8353875986310059	-0.07658449520110969	1.6238288421765952	-0.7726905569686573	-0.1270350911652105	1.590431016680005	-0.7624048324736105	-0.11795038972080783	1.5938058453068171	-0.767637063643224	-0.0876072551847425	1.611412875741109	-0.7435898652082957	-0.07765216043198968	2.0594364657953284	-0.8327665352535696	-0.08999632715153057	2.1109823430580543	-0.8444500560011863	-0.10774253296524276	2.05915550266013	-0.7445830942404678	-0.12399166117548494	1.9809996056699253	-0.7242048630787802	-0.10602390210678819	2.037446349707903	-0.7903163344089209	-0.04316749422103535	2.0596951099402037	-0.9255253316644009	-0.04216716849370268	1.9798787001576508	-0.9328334003636207	-0.07117558593469095	2.030507950193452	-0.8877646679853486
75	2.5	-0.08781195060294475	1.906615517389325	-0.8024247103214897	-0.11214731625963487	1.9057324014508006	-0.7374294539381949	-0.12659729649467052	1.7544213755592535	-0.7171649706786025	-0.1431224226882907	1.622187429940773	-0.6293979343366952	-0.14726477342301886	1.579834469159612	-0.6657862761800705	-0.15759438271419474	1.5818503178723502	-0.625931145121914	-0.13830124675444058	1.615628016090992	-0.6210809294571737	-0.06600041319118363	1.905861334907881	-0.8595291102069842	-0.07373072307315902	1.7545048075870036	-0.8321308321373875	-0.07954008985555948	1.6230039850362965	-0.7735966885238147	-0.1270350911652105	1.590431016680005	-0.7624048324736105	-0.11795038972080783	1.5938058453068171	-0.767637063643224	-0.08771168172067542	1.611542079640648	-0.7435756688231707	-0.07930718580434634	2.055650326453978	-0.826654997142092	-0.09413082240013956	2.1060438642480857	-0.8367819621450576	-0.10859114249411475	2.054995631566035	-0.735963039667195	-0.12551727910848834	1.9774627164038125	-0.7070487009271035	-0.11233164372425888	2.029078149481347	-0.7683254881758315	-0.04505112721640843	2.0532312916218256	-0.9195327127248224	-0.04360101833406591	1.97546558517364	-0.9242273954584929	-0.0778298244249469	2.0292979628474552	-0.8780571494194173
76	2.533333333333333	-0.08722936923653812	1.901322759913098	-0.7985633639976963	-0.10936842313661345	1.9005207402530857	-0.7357479232753843	-0.13050380510481188	1.7515126369655631	-0.7210132142077383	-0.14427629101766784	1.6205359796852818	-0.6240196342283395	-0.1469901860533027	1.5779185900694597	-0.6660964717946473	-0.15581799225239326	1.5808439516796582	-0.6277025693732536	-0.14443001941645006	1.6133592767585851	-0.6142770352583562	-0.06548520182636232	1.9006121053090863	-0.8556612215169624	-0.07509231170940253	1.7538906111832724	-0.8384367046128177	-0.07899226282064772	1.6206614408465274	-0.7699421956431154	-0.1270350911652105	1.590431016680005	-0.7624048324736105	-0.11795038972080783	1.5938058453068171	-0.767637063643224	-0.09009968231333777	1.6097102964046006	-0.7405630363474355	-0.07878966854710846	2.0465104575996227	-0.8223898958686386	-0.09631376979752947	2.1009798509626574	-0.8333833082677152	-0.10782495291877138	2.04710789451823	-0.7313782211305434	-0.12248156309524313	1.9724294638935176	-0.7049799104881694	-0.10945103639931666	2.0252621447259203	-0.7669865297933063	-0.04704002215518696	2.0459056363066805	-0.9138536655448093	-0.05271843289600273	1.9702351318681681	-0.9107601298000152	-0.08328036648197042	2.021263521947169	-0.861382212559256
77	2.566666666666667	-0.08967737402277655	1.8934352914954287	-0.7950921840602557	-0.10882145209509769	1.8926469455189803	-0.7315466741736133	-0.13313526214698077	1.7463788616464173	-0.72993470472867	-0.14303869240141148	1.6178818933622123	-0.6292657596484307	-0.15058375867714566	1.575884641002902	-0.6705660178926325	-0.15891853991849023	1.5786773052662235	-0.6329726422153238	-0.13994418421927282	1.609259102200221	-0.618646838338504	-0.0682079864780767	1.8953911142733904	-0.8525970981543516	-0.07511354051200465	1.7486028776240679	-0.8495421648172049	-0.08219106885491094	1.6215801431348897	-0.7706015536160353	-0.1270350911652105	1.590431016680005	-0.7624048324736105	-0.11795038972080783	1.5938058453068171	-0.767637063643224	-0.08989326346435086	1.607947927677653	-0.7405204134025744	-0.07975298662485047	2.038331954314582	-0.813314091475595	-0.09580245095347055	2.0911515314092557	-0.8295002518806448	-0.1073814347740357	2.035689850689732	-0.7269492814914166	-1.6295788663919255	1.870570227058982	0.9315475050635973	-0.11425983108188875	2.01380204232326	-0.7492964209528911	-0.046553975884964016	2.0393599955955977	-0.9100379641459877	-0.05232239854934005	1.9624318763241204	-0.9068720991172073	-0.08533785680416385	2.016139019239905	-0.8445557298171597
78	2.6	-0.08675948848613811	1.8869217498104225	-0.7934484006979396	-0.10883368519395806	1.8836158352463563	-0.730268379992775	-0.1296932790575972	1.7382808044520506	-0.7366221750682815	-0.14086708651103336	1.6114803619883389	-0.6262310214007096	-0.14502899035676348	1.5774003403275576	-0.6723869915736501	-0.1540201650302565	1.5777589243850854	-0.6336883610604735	-0.13813701406430323	1.6050506724436813	-0.6154408142655631	-0.0674550238128999	1.8875086185754122	-0.8484831945345802	-0.07441452467808365	1.7410796655390215	-0.8569278537839786	-0.08224729755641419	1.6183912648695362	-0.7701008694367331	-0.1270350911652105	1.590431016680005	-0.7624048324736105	-0.11795038972080783	1.5938058453068171	-0.767637063643224	-0.09212558918926302	1.6077786655716828	-0.738182321672494	-0.07999819899350902	2.0294231466920105	-0.8125263838973822	-0.09542252603571136	2.084882379770967	-0.8268128635513786	-0.10673033407795988	2.029653290772993	-0.723354564306949	-0.11967226841095517	1.9541877662121652	-0.6900560364026702	-0.11524221107113981	2.0046918324610443	-0.7514919522546221	-0.04912111591406395	2.0300118213268106	-0.9070814188408135	-0.05419895685103827	1.9544272800697686	-0.9006833068501747	-0.088244904950776	2.0055042786906325	-0.8428205154934415
79	2.6333333333333333	-0.08714277395667576	1.881778338892255	-0.7929181785052704	-0.10930855287703939	1.8797283193875884	-0.729842188259625	-0.12840893585855528	1.7344651825150679	-0.7415313892063362	-0.14164057092409008	1.6138508718318354	-0.6298166153714149	-0.14716198469044964	1.5769409095390001	-0.6700829802376921	-0.15586086880050884	1.5786496016197211	-0.6319343420598531	-0.14017729169385765	1.60723783234056	-0.6135763843524755	-0.06621818621442692	1.882519135016786	-0.8532247321231688	-0.07010417865837275	1.7351200978435164	-0.8607095541878675	-0.08228107039525046	1.6186796564597683	-0.7701576430748378	-0.1270350911652105	1.590431016680005	-0.7624048324736105	-0.11795038972080783	1.5938058453068171	-0.767637063643224	-0.09198476318169174	1.6070494752947264	-0.738268268849168	-0.07958071280172407	2.025147632392082	-0.8091831245833981	-0.09481076586221997	2.080832769702199	-0.8239234860024457	-0.10846785243534617	2.023124771816164	-0.71736294061375	-0.11936453392717497	1.9477210267606035	-0.6863269626820218	-0.11706583455595966	1.9980795364402404	-0.7454511531827374	-0.04866822001020074	2.0264537391315325	-0.9038039261057546	-0.05215922390554586	1.9506296904231197	-0.9030169334193182	-0.08379780006822081	1.995042137635345	-0.844911068956984
